<svg xmlns="http://www.w3.org/2000/svg" xmlns:xlink="http://www.w3.org/1999/xlink" width="1080" zoomAndPan="magnify" viewBox="0 0 810 809.999993" height="1080" preserveAspectRatio="xMidYMid meet" version="1.0"><defs><g/><clipPath id="43433afbea"><path d="M 153.46875 154 L 396.46875 154 L 396.46875 397 L 153.46875 397 Z M 153.46875 154 " clip-rule="nonzero"/></clipPath><clipPath id="5f06dbb2fb"><path d="M 191.71875 154 L 358.21875 154 C 368.363281 154 378.09375 158.027344 385.265625 165.203125 C 392.4375 172.375 396.46875 182.105469 396.46875 192.25 L 396.46875 358.75 C 396.46875 368.894531 392.4375 378.621094 385.265625 385.796875 C 378.09375 392.96875 368.363281 397 358.21875 397 L 191.71875 397 C 181.574219 397 171.84375 392.96875 164.671875 385.796875 C 157.5 378.621094 153.46875 368.894531 153.46875 358.75 L 153.46875 192.25 C 153.46875 182.105469 157.5 172.375 164.671875 165.203125 C 171.84375 158.027344 181.574219 154 191.71875 154 Z M 191.71875 154 " clip-rule="nonzero"/></clipPath><clipPath id="8c23560143"><path d="M 413.53125 154 L 656.53125 154 L 656.53125 397 L 413.53125 397 Z M 413.53125 154 " clip-rule="nonzero"/></clipPath><clipPath id="9bb5939bb3"><path d="M 451.78125 154 L 618.28125 154 C 628.425781 154 638.15625 158.027344 645.328125 165.203125 C 652.5 172.375 656.53125 182.105469 656.53125 192.25 L 656.53125 358.75 C 656.53125 368.894531 652.5 378.621094 645.328125 385.796875 C 638.15625 392.96875 628.425781 397 618.28125 397 L 451.78125 397 C 441.636719 397 431.90625 392.96875 424.734375 385.796875 C 417.5625 378.621094 413.53125 368.894531 413.53125 358.75 L 413.53125 192.25 C 413.53125 182.105469 417.5625 172.375 424.734375 165.203125 C 431.90625 158.027344 441.636719 154 451.78125 154 Z M 451.78125 154 " clip-rule="nonzero"/></clipPath><clipPath id="66c7101758"><path d="M 153.46875 413 L 396.46875 413 L 396.46875 656 L 153.46875 656 Z M 153.46875 413 " clip-rule="nonzero"/></clipPath><clipPath id="5b8acadf0d"><path d="M 191.71875 413 L 358.21875 413 C 368.363281 413 378.09375 417.03125 385.265625 424.203125 C 392.4375 431.378906 396.46875 441.105469 396.46875 451.25 L 396.46875 617.75 C 396.46875 627.894531 392.4375 637.625 385.265625 644.796875 C 378.09375 651.972656 368.363281 656 358.21875 656 L 191.71875 656 C 181.574219 656 171.84375 651.972656 164.671875 644.796875 C 157.5 637.625 153.46875 627.894531 153.46875 617.75 L 153.46875 451.25 C 153.46875 441.105469 157.5 431.378906 164.671875 424.203125 C 171.84375 417.03125 181.574219 413 191.71875 413 Z M 191.71875 413 " clip-rule="nonzero"/></clipPath><clipPath id="f6e2903318"><path d="M 413.53125 413 L 656.53125 413 L 656.53125 656 L 413.53125 656 Z M 413.53125 413 " clip-rule="nonzero"/></clipPath><clipPath id="be9873d766"><path d="M 535.03125 413 C 467.929688 413 413.53125 467.398438 413.53125 534.5 C 413.53125 601.605469 467.929688 656 535.03125 656 C 602.132812 656 656.53125 601.605469 656.53125 534.5 C 656.53125 467.398438 602.132812 413 535.03125 413 Z M 535.03125 413 " clip-rule="nonzero"/></clipPath></defs><g clip-path="url(#43433afbea)"><g clip-path="url(#5f06dbb2fb)"><path fill="#ff0000" d="M 153.46875 154 L 396.46875 154 L 396.46875 397 L 153.46875 397 Z M 153.46875 154 " fill-opacity="1" fill-rule="nonzero"/></g></g><g clip-path="url(#8c23560143)"><g clip-path="url(#9bb5939bb3)"><path fill="#ffde59" d="M 413.53125 154 L 656.53125 154 L 656.53125 397 L 413.53125 397 Z M 413.53125 154 " fill-opacity="1" fill-rule="nonzero"/></g></g><g clip-path="url(#66c7101758)"><g clip-path="url(#5b8acadf0d)"><path fill="#004aad" d="M 153.46875 413 L 396.46875 413 L 396.46875 656 L 153.46875 656 Z M 153.46875 413 " fill-opacity="1" fill-rule="nonzero"/></g></g><g clip-path="url(#f6e2903318)"><g clip-path="url(#be9873d766)"><path fill="#00bf63" d="M 413.53125 413 L 656.53125 413 L 656.53125 656 L 413.53125 656 Z M 413.53125 413 " fill-opacity="1" fill-rule="nonzero"/></g></g><g fill="#000000" fill-opacity="1"><g transform="translate(471.978484, 305.123983)"><g><path d="M 38.765625 -55.6875 L 50.6875 -55.6875 L 31.765625 0 L 18.890625 0 L 0 -55.6875 L 11.921875 -55.6875 L 22.390625 -22.546875 C 22.972656 -20.585938 23.578125 -18.304688 24.203125 -15.703125 C 24.828125 -13.109375 25.210938 -11.300781 25.359375 -10.28125 C 25.640625 -12.613281 26.59375 -16.703125 28.21875 -22.546875 Z M 38.765625 -55.6875 "/></g></g><g transform="translate(522.670864, 305.123983)"><g><path d="M 61.25 0 L 47.796875 0 L 40.25 -29.25 C 39.976562 -30.289062 39.503906 -32.441406 38.828125 -35.703125 C 38.148438 -38.960938 37.765625 -41.15625 37.671875 -42.28125 C 37.515625 -40.90625 37.128906 -38.695312 36.515625 -35.65625 C 35.910156 -32.625 35.441406 -30.460938 35.109375 -29.171875 L 27.609375 0 L 14.203125 0 L 0 -55.6875 L 11.609375 -55.6875 L 18.734375 -25.296875 C 19.984375 -19.679688 20.882812 -14.816406 21.4375 -10.703125 C 21.59375 -12.148438 21.941406 -14.390625 22.484375 -17.421875 C 23.035156 -20.453125 23.550781 -22.804688 24.03125 -24.484375 L 32.140625 -55.6875 L 43.296875 -55.6875 L 51.421875 -24.484375 C 51.773438 -23.085938 52.21875 -20.953125 52.75 -18.078125 C 53.28125 -15.210938 53.6875 -12.753906 53.96875 -10.703125 C 54.21875 -12.679688 54.625 -15.148438 55.1875 -18.109375 C 55.75 -21.066406 56.253906 -23.460938 56.703125 -25.296875 L 63.796875 -55.6875 L 75.40625 -55.6875 Z M 61.25 0 "/></g></g></g><g fill="#ffffff" fill-opacity="1"><g transform="translate(219.779289, 564.126016)"><g><path d="M 38.765625 -55.6875 L 50.6875 -55.6875 L 31.765625 0 L 18.890625 0 L 0 -55.6875 L 11.921875 -55.6875 L 22.390625 -22.546875 C 22.972656 -20.585938 23.578125 -18.304688 24.203125 -15.703125 C 24.828125 -13.109375 25.210938 -11.300781 25.359375 -10.28125 C 25.640625 -12.613281 26.59375 -16.703125 28.21875 -22.546875 Z M 38.765625 -55.6875 "/></g></g><g transform="translate(270.471669, 564.126016)"><g><path d="M 52.640625 0 L 40.859375 0 L 40.859375 -24.03125 L 18.8125 -24.03125 L 18.8125 0 L 7.015625 0 L 7.015625 -55.6875 L 18.8125 -55.6875 L 18.8125 -33.859375 L 40.859375 -33.859375 L 40.859375 -55.6875 L 52.640625 -55.6875 Z M 52.640625 0 "/></g></g></g><g fill="#ffffff" fill-opacity="1"><g transform="translate(224.466789, 305.123983)"><g><path d="M 18.8125 -29.484375 L 22.703125 -29.484375 C 26.328125 -29.484375 29.039062 -30.195312 30.84375 -31.625 C 32.644531 -33.0625 33.546875 -35.148438 33.546875 -37.890625 C 33.546875 -40.660156 32.789062 -42.707031 31.28125 -44.03125 C 29.769531 -45.351562 27.40625 -46.015625 24.1875 -46.015625 L 18.8125 -46.015625 Z M 45.46875 -38.3125 C 45.46875 -32.320312 43.59375 -27.738281 39.84375 -24.5625 C 36.101562 -21.394531 30.78125 -19.8125 23.875 -19.8125 L 18.8125 -19.8125 L 18.8125 0 L 7.015625 0 L 7.015625 -55.6875 L 24.796875 -55.6875 C 31.546875 -55.6875 36.675781 -54.226562 40.1875 -51.3125 C 43.707031 -48.40625 45.46875 -44.070312 45.46875 -38.3125 Z M 45.46875 -38.3125 "/></g></g><g transform="translate(273.445302, 305.123983)"><g><path d="M 52.03125 0 L 38.546875 0 L 25.59375 -21.0625 L 12.640625 0 L 0 0 L 18.46875 -28.71875 L 1.1875 -55.6875 L 14.203125 -55.6875 L 26.203125 -35.65625 L 37.96875 -55.6875 L 50.6875 -55.6875 L 33.21875 -28.0625 Z M 52.03125 0 "/></g></g></g></svg>